M48
;Layer_Color=9474304
;FILE_FORMAT=2:4
INCH,TZ
;TYPE=PLATED
T1F00S00C0.0197
T2F00S00C0.0315
%
T01
X1654Y394
Y787
Y1181
Y1575
X2047Y1378
Y984
Y591
X2441Y394
Y787
Y1181
X3031
Y787
Y394
X3425Y591
Y984
Y1378
X3031Y1575
X3819
Y1181
Y787
Y394
Y6102
Y6496
Y6890
Y7283
X3425Y7087
Y6693
Y6299
X3031Y6496
Y6102
X2441
Y6496
Y6890
Y7283
X3031
Y6890
X2047Y7087
Y6693
Y6299
X1654Y6496
Y6102
Y6890
Y7283
T02
X2441Y1575
X4409Y1575
M30
