G04*
G04 #@! TF.GenerationSoftware,Altium Limited,Altium Designer,18.1.7 (191)*
G04*
G04 Layer_Color=8388736*
%FSLAX24Y24*%
%MOIN*%
G70*
G01*
G75*
%ADD11C,0.0611*%
%ADD12R,0.0611X0.0611*%
%ADD13C,0.0434*%
D11*
X2441Y1575D02*
D03*
D12*
X4409Y1575D02*
D03*
D13*
X2047Y984D02*
D03*
X3425D02*
D03*
X3031Y1575D02*
D03*
X3819D02*
D03*
Y394D02*
D03*
X3031D02*
D03*
X1654Y1575D02*
D03*
Y394D02*
D03*
X2441D02*
D03*
X2047Y1378D02*
D03*
X1654Y1181D02*
D03*
Y787D02*
D03*
X2047Y591D02*
D03*
X2441Y787D02*
D03*
Y1181D02*
D03*
X3031D02*
D03*
Y787D02*
D03*
X3425Y1378D02*
D03*
X3819Y1181D02*
D03*
Y787D02*
D03*
X3425Y591D02*
D03*
X2047Y6693D02*
D03*
X3425D02*
D03*
X1654Y7283D02*
D03*
Y6102D02*
D03*
X2441D02*
D03*
Y7283D02*
D03*
X2047Y7087D02*
D03*
X1654Y6890D02*
D03*
Y6496D02*
D03*
X2047Y6299D02*
D03*
X2441Y6496D02*
D03*
Y6890D02*
D03*
X3031Y7283D02*
D03*
X3819D02*
D03*
Y6102D02*
D03*
X3031D02*
D03*
Y6496D02*
D03*
Y6890D02*
D03*
X3425Y7087D02*
D03*
X3819Y6890D02*
D03*
Y6496D02*
D03*
X3425Y6299D02*
D03*
M02*
