G04*
G04 #@! TF.GenerationSoftware,Altium Limited,Altium Designer,18.1.7 (191)*
G04*
G04 Layer_Color=16711935*
%FSLAX24Y24*%
%MOIN*%
G70*
G01*
G75*
%ADD11C,0.0611*%
%ADD12R,0.0611X0.0611*%
%ADD13C,0.0434*%
%ADD24R,0.1261X0.1655*%
G04:AMPARAMS|DCode=25|XSize=47.4mil|YSize=43.4mil|CornerRadius=8.4mil|HoleSize=0mil|Usage=FLASHONLY|Rotation=270.000|XOffset=0mil|YOffset=0mil|HoleType=Round|Shape=RoundedRectangle|*
%AMROUNDEDRECTD25*
21,1,0.0474,0.0266,0,0,270.0*
21,1,0.0305,0.0434,0,0,270.0*
1,1,0.0169,-0.0133,-0.0153*
1,1,0.0169,-0.0133,0.0153*
1,1,0.0169,0.0133,0.0153*
1,1,0.0169,0.0133,-0.0153*
%
%ADD25ROUNDEDRECTD25*%
%ADD26O,0.0363X0.0781*%
%ADD27R,0.0363X0.0781*%
%ADD28R,0.0316X0.0552*%
%ADD29O,0.0316X0.0552*%
D11*
X2441Y1575D02*
D03*
D12*
X4409Y1575D02*
D03*
D13*
X2047Y984D02*
D03*
X3425D02*
D03*
X3031Y1575D02*
D03*
X3819D02*
D03*
Y394D02*
D03*
X3031D02*
D03*
X1654Y1575D02*
D03*
Y394D02*
D03*
X2441D02*
D03*
X2047Y1378D02*
D03*
X1654Y1181D02*
D03*
Y787D02*
D03*
X2047Y591D02*
D03*
X2441Y787D02*
D03*
Y1181D02*
D03*
X3031D02*
D03*
Y787D02*
D03*
X3425Y1378D02*
D03*
X3819Y1181D02*
D03*
Y787D02*
D03*
X3425Y591D02*
D03*
X2047Y6693D02*
D03*
X3425D02*
D03*
X1654Y7283D02*
D03*
Y6102D02*
D03*
X2441D02*
D03*
Y7283D02*
D03*
X2047Y7087D02*
D03*
X1654Y6890D02*
D03*
Y6496D02*
D03*
X2047Y6299D02*
D03*
X2441Y6496D02*
D03*
Y6890D02*
D03*
X3031Y7283D02*
D03*
X3819D02*
D03*
Y6102D02*
D03*
X3031D02*
D03*
Y6496D02*
D03*
Y6890D02*
D03*
X3425Y7087D02*
D03*
X3819Y6890D02*
D03*
Y6496D02*
D03*
X3425Y6299D02*
D03*
D24*
X2047Y6693D02*
D03*
X669D02*
D03*
X3425D02*
D03*
X4803D02*
D03*
X2047Y984D02*
D03*
X669D02*
D03*
X3425D02*
D03*
X4803D02*
D03*
D25*
X3051Y5512D02*
D03*
X2382D02*
D03*
X3091Y3307D02*
D03*
X2421D02*
D03*
D26*
X311Y5346D02*
D03*
X811D02*
D03*
X1311D02*
D03*
X1811D02*
D03*
X311Y3504D02*
D03*
X811D02*
D03*
X1311D02*
D03*
X3657Y5346D02*
D03*
X4157D02*
D03*
X4657D02*
D03*
X5157D02*
D03*
X3657Y3504D02*
D03*
X4157D02*
D03*
X4657D02*
D03*
D27*
X1811D02*
D03*
X5157D02*
D03*
D28*
X2362Y4921D02*
D03*
D29*
X2736D02*
D03*
X3110D02*
D03*
X2362Y3890D02*
D03*
X2736D02*
D03*
X3110D02*
D03*
M02*
